HIERARCHY
ROOT Hips
{
  OFFSET 0.382225 96.6805 0.598322
  CHANNELS 6 Xposition Yposition Zposition Zrotation Xrotation Yrotation
  JOINT Spine
  {
    OFFSET 10.8089 -0.851416 0
    CHANNELS 3 Zrotation Xrotation Yrotation
    JOINT Spine1
    {
      OFFSET 18.8753 3.80116 0
      CHANNELS 3 Zrotation Xrotation Yrotation
      JOINT Spine2
      {
        OFFSET 13.4073 0.420477 0
        CHANNELS 3 Zrotation Xrotation Yrotation
        JOINT LeftShoulder
        {
          OFFSET 11.8837 -2.73209 -3.78198
          CHANNELS 3 Zrotation Xrotation Yrotation
          JOINT LeftArm
          {
            OFFSET 15.7849 0 -2.35849e-005
            CHANNELS 3 Zrotation Xrotation Yrotation
            JOINT LeftForeArm
            {
              OFFSET 30.3399 0 0
              CHANNELS 3 Zrotation Xrotation Yrotation
              JOINT LeftHand
              {
                OFFSET 26.9751 0 2.45913e-005
                CHANNELS 3 Zrotation Xrotation Yrotation
                End Site
                {
                  OFFSET 8 0 0
                }
              }
            }
          }
        }
        JOINT RightShoulder
        {
          OFFSET 11.8838 -2.7321 3.782
          CHANNELS 3 Zrotation Xrotation Yrotation
          JOINT RightArm
          {
            OFFSET -15.7848 0 -1.07056e-005
            CHANNELS 3 Zrotation Xrotation Yrotation
            JOINT RightForeArm
            {
              OFFSET -30.34 1.02096e-005 -2.53607e-005
              CHANNELS 3 Zrotation Xrotation Yrotation
              JOINT RightHand
              {
                OFFSET -26.9752 2.07668e-005 0
                CHANNELS 3 Zrotation Xrotation Yrotation
                End Site
                {
                  OFFSET -8 0 0
                }
              }
            }
          }
        }
        JOINT Neck
        {
          OFFSET 16.5588 -0.355318 0
          CHANNELS 3 Zrotation Xrotation Yrotation
          JOINT Head
          {
            OFFSET 9.28361 0.364157 0
            CHANNELS 3 Zrotation Xrotation Yrotation
            End Site
            {
              OFFSET 0 0 0
            }
          }
        }
      }
    }
  }
  JOINT LeftUpLeg
  {
    OFFSET -1.44883 -0.531424 -9.00581
    CHANNELS 3 Zrotation Xrotation Yrotation
    JOINT LeftLeg
    {
      OFFSET -42.572 0.0788889 -0.011964
      CHANNELS 3 Zrotation Xrotation Yrotation
      JOINT LeftFoot
      {
        OFFSET -40.1967 0 0
        CHANNELS 3 Zrotation Xrotation Yrotation
				JOINT LeftToe
        {
          OFFSET -10.4538 -16.5779 0.0801563
          CHANNELS 3 Zrotation Xrotation Yrotation
          End Site
          {
            OFFSET -1.0 -1.0 0.0
          }
        }
      }
    }
  }
  JOINT RightUpLeg
  {
    OFFSET -1.44865 -0.531427 9.0058
    CHANNELS 3 Zrotation Xrotation Yrotation
    JOINT RightLeg
    {
      OFFSET 42.5723 -3.24776e-005 0
      CHANNELS 3 Zrotation Xrotation Yrotation
      JOINT RightFoot
      {
        OFFSET 40.1968 0 -1.14003e-005
        CHANNELS 3 Zrotation Xrotation Yrotation
				JOINT RightToe
        {
          OFFSET 10.4538 16.5778 -0.0801573
          CHANNELS 3 Zrotation Xrotation Yrotation
          End Site
          {
            OFFSET -1.0 -1.0 0.0
          }
        }
      }
    }
  }
}
MOTION
Frames:	8
Frame Time:	0.0333333
27.0108 96.4573 0.07748 85.2337 -6.57469 1.49918 -20.0365 -1.13104 -1.62276 22.399 -0.463836 -0.771281 2.7794 1.93418e-006 1.65929e-005 -0.7895 24.0327 76.9924 30.6077 -10.8453 33.8704 -34.5721 -9.61364 -8.13081 -148.768 -70.1315 -143.662 177.748 24.9661 84.7812 23.0334 -28.0098 33.1937 -71.0782 -9.10577 -5.4759 161.592 -74.9593 173.022 -23.508 4.63459e-006 -5.90926e-006 31.1375 -17.9875 -3.66873 28.6975 25.1218 -18.9716 -0.134891 -6.15258 2.61726 -27.1511 0.498813 0.900766 -90 0 0 -169.611 16.3798 -5.73211 -26.6383 -5.06932 -0.951691 11.0965 -1.30173 6.11986 -90 0 0
19.6817 99.1727 -0.180592 81.1602 -4.28089 -1.78086 -22.7885 -1.05032 2.40928 19.9514 -0.316022 -0.551861 2.7794 1.93418e-006 1.65929e-005 2.81908 29.9833 69.5775 31.3583 -8.92178 38.5575 -43.3031 -7.0163 -11.1876 -153.665 -69.0783 -147.472 -175.254 27.9077 70.8054 27.5996 -28.9822 38.0365 -83.2265 -8.81315 -6.54534 156.568 -71.6515 167.702 -23.508 4.63459e-006 -5.90926e-006 42.0052 -20.3882 -3.67393 29.6592 17.5004 -13.0382 -0.076983 -6.51142 2.56656 -31.2292 -9.13367 11.3018 -90 0 0 -164.749 18.1987 -8.26823 -15.8257 -5.64308 0.504574 0.109436 -2.20103 5.25114 -90 0 0
12.8029 101.499 -0.537238 80.5363 -4.06167 -4.91751 -25.4972 0.793317 5.96767 17.854 -0.196961 -0.358996 2.7794 1.93418e-006 1.65929e-005 2.54979 30.3129 70.3054 24.6642 -16.9599 35.8796 -50.4768 -3.93205 -13.9359 -149.649 -67.5326 -142.636 -169.438 25.595 60.2775 12.59 -38.6321 30.8871 -88.5117 -8.61723 -6.98655 154.519 -73.1507 167.23 -23.508 4.63459e-006 -5.90926e-006 36.9418 -22.4194 1.50084 25.7322 10.7332 -6.85974 -3.33904 -6.12405 2.29435 -35.0349 -7.6867 5.61979 -90 0 0 -162.179 19.2915 -11.0949 -6.24486 -5.84057 1.98903 -12.9976 -3.85882 4.89702 -90 0 0
7.40093 103.035 -0.857195 82.2424 -8.29424 -5.49332 -25.3574 7.94553 5.72566 17.2244 -0.162579 -0.300271 2.7794 1.93418e-006 1.65929e-005 -2.03573 25.3281 80.9397 1.94618 -26.0604 15.8055 -52.063 -3.26602 -14.4335 -151.559 -69.3094 -141.562 -169.716 10.5417 53.6552 -20.506 -39.0252 6.50877 -77.9221 -8.96856 -6.08614 125.887 -76.374 143.432 -23.508 4.63459e-006 -5.90926e-006 15.0998 -23.0037 15.667 18.9153 6.64282 -5.25181 -2.53828 -6.09758 2.3817 -33.5777 -4.91911 3.54759 -90 0 0 -162.141 18.1012 -10.5522 -2.38741 -5.86963 2.58902 -18.9425 -4.92137 6.92444 -90 0 0
3.17531 103.758 -0.288018 83.6516 -11.1639 -4.50362 -22.7736 15.5769 4.16425 16.4088 -0.119026 -0.22365 2.7794 1.93418e-006 1.65929e-005 -2.35014 19.0881 81.7909 -25.4791 -19.7851 2.9476 -50.601 -3.8804 -13.9756 -153.088 -69.4883 -138.785 -175.155 -5.014 48.7664 -44.0022 -36.532 -0.541343 -54.1277 -9.13794 -3.92576 38.0701 -71.9413 57.1935 -23.508 4.63459e-006 -5.90926e-006 -3.36639 -18.779 20.3757 15.9955 11.4606 -6.23073 -0.0814632 -6.38545 2.53207 -30.0008 -3.37742 3.19745 -90 0 0 -162.656 16.3416 -7.99628 -5.93501 -5.94424 2.04605 -18.5364 -7.10494 4.88455 -90 0 0
-1.59193 103.415 0.461075 85.0251 -4.60599 -5.9743 -23.1767 13.5293 5.47262 18.4858 -0.232056 -0.417553 2.7794 1.93418e-006 1.65929e-005 -2.36123 7.13071 73.5838 -41.887 -11.5641 -0.383547 -52.533 -3.06547 -14.5776 -148.3 -66.398 -132.601 178.308 -16.7874 52.3812 -61.6654 -46.728 -3.63987 -24.2121 -8.10574 -1.42931 -0.0904901 -52.6434 15.7849 -23.508 4.63459e-006 -5.90926e-006 -1.78832 -11.5626 13.234 15.7592 11.709 -2.66202 -0.133109 -6.4773 2.51489 -30.1812 -8.273 5.37308 -90 0 0 -163.719 13.9184 -9.33882 -8.67469 -5.91071 1.62012 -14.9691 -5.99158 2.05002 -90 0 0
-6.71561 102.006 1.33419 86.2632 8.76321 -5.37781 -24.7094 10.0955 2.95238 21.3611 -0.400004 -0.679008 2.7794 1.93418e-006 1.65929e-005 -6.24913 -4.69968 63.8043 -61.9822 -13.1124 -8.11244 -48.8736 -4.58765 -13.4168 -149.412 -66.8981 -133.119 178.51 -20.2974 63.2351 -77.1103 -49.2825 -5.95227 -3.38419 -6.70871 -0.155403 -14.6891 -55.0312 -6.58479 -23.508 4.63459e-006 -5.90926e-006 18.5662 -4.36027 7.48125 18.2237 3.82891 0.295226 -0.178505 -6.30883 2.57955 -31.851 -11.589 5.98421 -90 0 0 -163.893 20.562 -11.1686 -6.7161 -5.90218 1.92635 -13.7695 -1.47744 2.77163 -90 0 0
-11.7311 100.497 1.66345 86.1204 19.8355 -3.92232 -26.4523 6.43696 -1.52273 22.044 -0.44182 -0.739848 2.7794 1.93418e-006 1.65929e-005 -7.48556 -5.11564 57.2184 -92.6252 -18.8043 -24.1523 -41.4748 -7.37879 -10.8186 -126.803 -75.4322 -110.983 179.682 -18.3735 66.4813 -87.7491 -48.4005 0.575686 -5.47653 -6.86908 -0.259305 -7.3818 -48.5114 4.26283 -23.508 4.63459e-006 -5.90926e-006 50.4765 3.03642 4.94558 22.2926 2.1392 2.33578 -1.83702 -6.17913 2.46026 -31.2945 -13.9109 11.6347 -90 0 0 -161.864 22.0811 -12.9528 -6.96996 -5.84901 1.87931 -12.215 4.53617 5.16487 -90 0 0
